<?xml version="1.0" encoding="UTF-8" standalone="no"?>
<svg
   xmlns:dc="http://purl.org/dc/elements/1.1/"
   xmlns:cc="http://creativecommons.org/ns#"
   xmlns:rdf="http://www.w3.org/1999/02/22-rdf-syntax-ns#"
   xmlns:svg="http://www.w3.org/2000/svg"
   xmlns="http://www.w3.org/2000/svg"
   xmlns:sodipodi="http://sodipodi.sourceforge.net/DTD/sodipodi-0.dtd"
   xmlns:inkscape="http://www.inkscape.org/namespaces/inkscape"
   width="655.13483"
   height="360.23145"
   viewBox="-36 57 368.58138 197.07431"
   id="svg2"
   version="1.1"
   inkscape:version="0.48.1 r9760"
   sodipodi:docname="neo.svg">
  <title
     id="title3247">Neo Hierarchy</title>
  <metadata
     id="metadata270">
    <rdf:RDF>
      <cc:Work
         rdf:about="">
        <dc:format>image/svg+xml</dc:format>
        <dc:type
           rdf:resource="http://purl.org/dc/dcmitype/StillImage" />
        <dc:title>Neo Hierarchy</dc:title>
        <dc:creator>
          <cc:Agent>
            <dc:title>Robert Pröpper</dc:title>
          </cc:Agent>
        </dc:creator>
        <cc:license
           rdf:resource="http://creativecommons.org/licenses/publicdomain/" />
      </cc:Work>
      <cc:License
         rdf:about="http://creativecommons.org/licenses/publicdomain/">
        <cc:permits
           rdf:resource="http://creativecommons.org/ns#Reproduction" />
        <cc:permits
           rdf:resource="http://creativecommons.org/ns#Distribution" />
        <cc:permits
           rdf:resource="http://creativecommons.org/ns#DerivativeWorks" />
      </cc:License>
    </rdf:RDF>
  </metadata>
  <defs
     id="defs268" />
  <sodipodi:namedview
     pagecolor="#ffffff"
     bordercolor="#666666"
     borderopacity="1"
     objecttolerance="10"
     gridtolerance="10"
     guidetolerance="10"
     inkscape:pageopacity="0"
     inkscape:pageshadow="2"
     inkscape:window-width="1122"
     inkscape:window-height="848"
     id="namedview266"
     showgrid="false"
     fit-margin-top="0"
     fit-margin-left="0"
     fit-margin-right="0"
     fit-margin-bottom="0"
     inkscape:zoom="1"
     inkscape:cx="363.4603"
     inkscape:cy="161.87671"
     inkscape:window-x="0"
     inkscape:window-y="0"
     inkscape:window-maximized="0"
     inkscape:current-layer="svg2" />
  <g
     id="g4"
     transform="matrix(0.4017283,0,0,0.4017283,-21.439509,31.548422)">
    <rect
       style="fill:#90ee90"
       x="0"
       y="60"
       width="220"
       height="60"
       id="rect6" />
    <rect
       style="fill:none;stroke:#000000;stroke-width:2.4892447"
       x="0"
       y="60"
       width="220"
       height="60"
       id="rect8" />
  </g>
  <text
     style="font-size:9.06998062px;font-style:normal;font-weight:normal;text-anchor:middle;fill:#000000;font-family:sanserif"
     x="22.750603"
     y="70.847481"
     id="text10">
    <tspan
       x="22.750603"
       y="70.847481"
       id="tspan12">Block</tspan>
  </text>
  <text
     style="font-size:12.79979992px;font-style:normal;font-weight:normal;text-anchor:start;fill:#000000;font-family:sanserif"
     x="26.199135"
     y="-2.2780333"
     id="text14">
    <tspan
       x="26.199135"
       y="-2.2780333"
       id="tspan16" />
  </text>
  <g
     id="g18"
     transform="matrix(0.4017283,0,0,0.4017283,-21.439509,31.548422)">
    <rect
       style="fill:#90ee90"
       x="0"
       y="340"
       width="220"
       height="60"
       id="rect20" />
    <rect
       style="fill:none;stroke:#000000;stroke-width:2.4892447"
       x="0"
       y="340"
       width="220"
       height="60"
       id="rect22" />
  </g>
  <text
     style="font-size:9.06998062px;font-style:normal;font-weight:normal;text-anchor:middle;fill:#000000;font-family:sanserif"
     x="22.750603"
     y="183.33145"
     id="text24">
    <tspan
       x="22.750603"
       y="183.33145"
       id="tspan26">RecordingChannel</tspan>
  </text>
  <g
     id="g28"
     transform="matrix(0.4017283,0,0,0.4017283,-21.439509,31.548422)">
    <rect
       style="fill:#90ee90"
       x="-35"
       y="200"
       width="290"
       height="60"
       id="rect30" />
    <rect
       style="fill:none;stroke:#000000;stroke-width:2.4892447"
       x="-35"
       y="200"
       width="290"
       height="60"
       id="rect32" />
  </g>
  <text
     style="font-size:9.06998062px;font-style:normal;font-weight:normal;text-anchor:middle;fill:#000000;font-family:sanserif"
     x="22.750603"
     y="127.08945"
     id="text34">
    <tspan
       x="22.750603"
       y="127.08945"
       id="tspan36">RecordingChannelGroup</tspan>
  </text>
  <g
     id="g38"
     transform="matrix(0.4017283,0,0,0.4017283,-21.439509,31.548422)">
    <rect
       style="fill:#90ee90"
       x="360"
       y="140"
       width="200"
       height="60"
       id="rect40" />
    <rect
       style="fill:none;stroke:#000000;stroke-width:2.4892447"
       x="360"
       y="140"
       width="200"
       height="60"
       id="rect42" />
  </g>
  <text
     style="font-size:9.06998062px;font-style:normal;font-weight:normal;text-anchor:middle;fill:#000000;font-family:sanserif"
     x="163.3555"
     y="102.98575"
     id="text44">
    <tspan
       x="163.3555"
       y="102.98575"
       id="tspan46">Segment</tspan>
  </text>
  <g
     id="g48"
     transform="matrix(0.4017283,0,0,0.4017283,-21.439509,31.548422)">
    <rect
       style="fill:#90ee90"
       x="420"
       y="340"
       width="120"
       height="60"
       id="rect50" />
    <rect
       style="fill:none;stroke:#000000;stroke-width:2.4892447"
       x="420"
       y="340"
       width="120"
       height="60"
       id="rect52" />
  </g>
  <text
     style="font-size:9.06998062px;font-style:normal;font-weight:normal;text-anchor:middle;fill:#000000;font-family:sanserif"
     x="171.39008"
     y="183.33145"
     id="text54">
    <tspan
       x="171.39008"
       y="183.33145"
       id="tspan56">Unit</tspan>
  </text>
  <g
     id="g58"
     transform="matrix(0.4017283,0,0,0.4017283,-21.439509,31.548422)">
    <rect
       style="fill:#add8e6"
       x="10"
       y="500"
       width="200"
       height="60"
       rx="24.892447"
       ry="24.892447"
       id="rect60" />
    <rect
       style="fill:none;stroke:#000000;stroke-width:2.4892447;stroke-linejoin:round"
       x="10"
       y="500"
       width="200"
       height="60"
       rx="24.892447"
       ry="24.892447"
       id="rect62" />
  </g>
  <text
     style="font-size:9.06998062px;font-style:normal;font-weight:normal;text-anchor:middle;fill:#000000;font-family:sanserif"
     x="22.750603"
     y="247.60797"
     id="text64">
    <tspan
       x="22.750603"
       y="247.60797"
       id="tspan66">AnalogSignal</tspan>
  </text>
  <g
     id="g68"
     transform="matrix(0.4017283,0,0,0.4017283,-21.439509,31.548422)">
    <rect
       style="fill:#add8e6"
       x="232"
       y="500"
       width="240"
       height="60"
       rx="24.892447"
       ry="24.892447"
       id="rect70" />
    <rect
       style="fill:none;stroke:#000000;stroke-width:2.4892447;stroke-linejoin:round"
       x="232"
       y="500"
       width="240"
       height="60"
       rx="24.892447"
       ry="24.892447"
       id="rect72" />
  </g>
  <text
     style="font-size:9.06998062px;font-style:normal;font-weight:normal;text-anchor:middle;fill:#000000;font-family:sanserif"
     x="119.96886"
     y="247.60797"
     id="text74">
    <tspan
       x="119.96886"
       y="247.60797"
       id="tspan76">AnalogSignalArray</tspan>
  </text>
  <g
     id="g78"
     transform="matrix(0.4017283,0,0,0.4017283,-21.439509,31.548422)">
    <rect
       style="fill:#ffc0cb"
       x="663"
       y="58"
       width="200"
       height="60"
       rx="24.892447"
       ry="24.892447"
       id="rect80" />
    <rect
       style="fill:none;stroke:#000000;stroke-width:2.4892447;stroke-linejoin:round"
       x="663"
       y="58"
       width="200"
       height="60"
       rx="24.892447"
       ry="24.892447"
       id="rect82" />
  </g>
  <text
     style="font-size:9.06998062px;font-style:normal;font-weight:normal;text-anchor:middle;fill:#000000;font-family:sanserif"
     x="285.07919"
     y="70.044022"
     id="text84">
    <tspan
       x="285.07919"
       y="70.044022"
       id="tspan86">Event</tspan>
  </text>
  <g
     id="g88"
     transform="matrix(0.4017283,0,0,0.4017283,-21.439509,31.548422)">
    <rect
       style="fill:#ffc0cb"
       x="680"
       y="138"
       width="200"
       height="60"
       rx="24.892447"
       ry="24.892447"
       id="rect90" />
    <rect
       style="fill:none;stroke:#000000;stroke-width:2.4892447;stroke-linejoin:round"
       x="680"
       y="138"
       width="200"
       height="60"
       rx="24.892447"
       ry="24.892447"
       id="rect92" />
  </g>
  <text
     style="font-size:9.06998062px;font-style:normal;font-weight:normal;text-anchor:middle;fill:#000000;font-family:sanserif"
     x="291.90857"
     y="102.18229"
     id="text94">
    <tspan
       x="291.90857"
       y="102.18229"
       id="tspan96">EventArray</tspan>
  </text>
  <g
     id="g98"
     transform="matrix(0.4017283,0,0,0.4017283,-21.439509,31.548422)">
    <rect
       style="fill:#ffc0cb"
       x="663"
       y="218"
       width="200"
       height="60"
       rx="24.892447"
       ry="24.892447"
       id="rect100" />
    <rect
       style="fill:none;stroke:#000000;stroke-width:2.4892447;stroke-linejoin:round"
       x="663"
       y="218"
       width="200"
       height="60"
       rx="24.892447"
       ry="24.892447"
       id="rect102" />
  </g>
  <text
     style="font-size:9.06998062px;font-style:normal;font-weight:normal;text-anchor:middle;fill:#000000;font-family:sanserif"
     x="285.07919"
     y="134.32059"
     id="text104">
    <tspan
       x="285.07919"
       y="134.32059"
       id="tspan106">Epoch</tspan>
  </text>
  <g
     id="g108"
     transform="matrix(0.4017283,0,0,0.4017283,-21.439509,31.548422)">
    <rect
       style="fill:#ffc0cb"
       x="680"
       y="298"
       width="200"
       height="60"
       rx="24.892447"
       ry="24.892447"
       id="rect110" />
    <rect
       style="fill:none;stroke:#000000;stroke-width:2.4892447;stroke-linejoin:round"
       x="680"
       y="298"
       width="200"
       height="60"
       rx="24.892447"
       ry="24.892447"
       id="rect112" />
  </g>
  <text
     style="font-size:9.06998062px;font-style:normal;font-weight:normal;text-anchor:middle;fill:#000000;font-family:sanserif"
     x="291.90857"
     y="166.45886"
     id="text114">
    <tspan
       x="291.90857"
       y="166.45886"
       id="tspan116">EpochArray</tspan>
  </text>
  <g
     id="g118"
     transform="matrix(0.4017283,0,0,0.4017283,-21.439509,31.548422)">
    <rect
       style="fill:#d8c491"
       x="660"
       y="378"
       width="200"
       height="60"
       rx="24.892447"
       ry="24.892447"
       id="rect120" />
    <rect
       style="fill:none;stroke:#000000;stroke-width:2.4892447;stroke-linejoin:round"
       x="660"
       y="378"
       width="200"
       height="60"
       rx="24.892447"
       ry="24.892447"
       id="rect122" />
  </g>
  <text
     style="font-size:9.06998062px;font-style:normal;font-weight:normal;text-anchor:middle;fill:#000000;font-family:sanserif"
     x="283.87399"
     y="198.59712"
     id="text124">
    <tspan
       x="283.87399"
       y="198.59712"
       id="tspan126">Spike</tspan>
  </text>
  <g
     id="g128"
     transform="matrix(0.4017283,0,0,0.4017283,-21.439509,31.548422)">
    <rect
       style="fill:#d8c491"
       x="680"
       y="458"
       width="200"
       height="60"
       rx="24.892447"
       ry="24.892447"
       id="rect130" />
    <rect
       style="fill:none;stroke:#000000;stroke-width:2.4892447;stroke-linejoin:round"
       x="680"
       y="458"
       width="200"
       height="60"
       rx="24.892447"
       ry="24.892447"
       id="rect132" />
  </g>
  <text
     style="font-size:9.06998062px;font-style:normal;font-weight:normal;text-anchor:middle;fill:#000000;font-family:sanserif"
     x="291.90857"
     y="230.73538"
     id="text134">
    <tspan
       x="291.90857"
       y="230.73538"
       id="tspan136">SpikeTrain</tspan>
  </text>
  <g
     id="g138"
     transform="matrix(0.4017283,0,0,0.4017283,-21.439509,31.548422)">
    <line
       style="fill:none;stroke:#000000;stroke-width:2.4892447;stroke-linejoin:round"
       x1="220.49699"
       y1="115.256"
       x2="351.10001"
       y2="145.108"
       id="line140" />
    <polygon
       style="fill:#000000"
       points="358.411,146.78 347.548,149.426 351.1,145.108 349.777,139.677 "
       id="polygon142" />
    <polygon
       style="fill:none;stroke:#000000;stroke-width:2.4892447"
       points="351.1,145.108 349.777,139.677 358.411,146.78 347.548,149.426 "
       id="polygon144" />
  </g>
  <g
     id="g146"
     transform="matrix(0.4017283,0,0,0.4017283,-21.439509,31.548422)">
    <line
       style="fill:none;stroke:#000000;stroke-width:2.4892447"
       x1="110"
       y1="120"
       x2="110"
       y2="191.382"
       id="line148" />
    <polygon
       style="fill:#000000"
       points="110,198.882 105,188.882 110,191.382 115,188.882 "
       id="polygon150" />
    <polygon
       style="fill:none;stroke:#000000;stroke-width:2.4892447"
       points="110,191.382 115,188.882 110,198.882 105,188.882 "
       id="polygon152" />
  </g>
  <g
     id="g154"
     transform="matrix(0.4017283,0,0,0.4017283,-21.439509,31.548422)">
    <line
       style="fill:none;stroke:#000000;stroke-width:2.4892447"
       x1="110"
       y1="260"
       x2="110"
       y2="331.38199"
       id="line156" />
    <polygon
       style="fill:#000000"
       points="110,338.882 105,328.882 110,331.382 115,328.882 "
       id="polygon158" />
    <polygon
       style="fill:none;stroke:#000000;stroke-width:2.4892447"
       points="110,331.382 115,328.882 110,338.882 105,328.882 "
       id="polygon160" />
  </g>
  <g
     id="g162"
     transform="matrix(0.4017283,0,0,0.4017283,-21.439509,31.548422)">
    <line
       style="fill:none;stroke:#000000;stroke-width:2.4892447"
       x1="110"
       y1="400"
       x2="110"
       y2="491.38199"
       id="line164" />
    <polygon
       style="fill:#000000"
       points="110,498.882 105,488.882 110,491.382 115,488.882 "
       id="polygon166" />
    <polygon
       style="fill:none;stroke:#000000;stroke-width:2.4892447"
       points="110,491.382 115,488.882 110,498.882 105,488.882 "
       id="polygon168" />
  </g>
  <g
     id="g170"
     transform="matrix(0.4017283,0,0,0.4017283,-21.439509,31.548422)">
    <line
       style="fill:none;stroke:#000000;stroke-width:2.4892447"
       x1="540.49103"
       y1="382.76999"
       x2="651.56799"
       y2="406.22"
       id="line172" />
    <polygon
       style="fill:#000000"
       points="658.906,407.769 648.089,410.596 651.568,406.22 650.155,400.811 "
       id="polygon174" />
    <polygon
       style="fill:none;stroke:#000000;stroke-width:2.4892447"
       points="651.568,406.22 650.155,400.811 658.906,407.769 648.089,410.596 "
       id="polygon176" />
  </g>
  <g
     id="g178"
     transform="matrix(0.4017283,0,0,0.4017283,-21.439509,31.548422)">
    <line
       style="fill:none;stroke:#000000;stroke-width:2.4892447"
       x1="531.685"
       y1="400.49399"
       x2="672.578"
       y2="483.621"
       id="line180" />
    <polygon
       style="fill:#000000"
       points="679.037,487.432 667.884,486.657 672.578,483.621 672.965,478.044 "
       id="polygon182" />
    <polygon
       style="fill:none;stroke:#000000;stroke-width:2.4892447"
       points="672.578,483.621 672.965,478.044 679.037,487.432 667.884,486.657 "
       id="polygon184" />
  </g>
  <g
     id="g186"
     transform="matrix(0.4017283,0,0,0.4017283,-21.439509,31.548422)">
    <line
       style="fill:none;stroke:#000000;stroke-width:2.4892447"
       x1="535.43103"
       y1="139.53"
       x2="655.00897"
       y2="91.227798"
       id="line188" />
    <polygon
       style="fill:#000000"
       points="661.963,88.4187 654.564,96.8002 655.009,91.2278 650.819,87.5281 "
       id="polygon190" />
    <polygon
       style="fill:none;stroke:#000000;stroke-width:2.4892447"
       points="655.009,91.2278 650.819,87.5281 661.963,88.4187 654.564,96.8002 "
       id="polygon192" />
  </g>
  <g
     id="g194"
     transform="matrix(0.4017283,0,0,0.4017283,-21.439509,31.548422)">
    <line
       style="fill:none;stroke:#000000;stroke-width:2.4892447"
       x1="560.5"
       y1="169.086"
       x2="671.38202"
       y2="168.078"
       id="line196" />
    <polygon
       style="fill:#000000"
       points="678.882,168.01 668.928,173.101 671.382,168.078 668.837,163.101 "
       id="polygon198" />
    <polygon
       style="fill:none;stroke:#000000;stroke-width:2.4892447"
       points="671.382,168.078 668.837,163.101 678.882,168.01 668.928,173.101 "
       id="polygon200" />
  </g>
  <g
     id="g202"
     transform="matrix(0.4017283,0,0,0.4017283,-21.439509,31.548422)">
    <line
       style="fill:none;stroke:#000000;stroke-width:2.4892447"
       x1="539.34601"
       y1="200.48801"
       x2="654.95502"
       y2="244.909"
       id="line204" />
    <polygon
       style="fill:#000000"
       points="661.956,247.599 650.828,248.68 654.955,244.909 654.415,239.345 "
       id="polygon206" />
    <polygon
       style="fill:none;stroke:#000000;stroke-width:2.4892447"
       points="654.955,244.909 654.415,239.345 661.956,247.599 650.828,248.68 "
       id="polygon208" />
  </g>
  <g
     id="g210"
     transform="matrix(0.4017283,0,0,0.4017283,-21.439509,31.548422)">
    <line
       style="fill:none;stroke:#000000;stroke-width:2.4892447"
       x1="502.45801"
       y1="200.493"
       x2="673"
       y2="322.97299"
       id="line212" />
    <polygon
       style="fill:#000000"
       points="679.092,327.348 668.053,325.576 673,322.973 673.886,317.453 "
       id="polygon214" />
    <polygon
       style="fill:none;stroke:#000000;stroke-width:2.4892447"
       points="673,322.973 673.886,317.453 679.092,327.348 668.053,325.576 "
       id="polygon216" />
  </g>
  <g
     id="g218"
     transform="matrix(0.4017283,0,0,0.4017283,-21.439509,31.548422)">
    <line
       style="fill:none;stroke:#000000;stroke-width:2.4892447"
       x1="489.34201"
       y1="200.49899"
       x2="656.95398"
       y2="374.71799"
       id="line220" />
    <polygon
       style="fill:#000000"
       points="662.154,380.123 651.617,376.383 656.954,374.718 658.824,369.45 "
       id="polygon222" />
    <polygon
       style="fill:none;stroke:#000000;stroke-width:2.4892447"
       points="656.954,374.718 658.824,369.45 662.154,380.123 651.617,376.383 "
       id="polygon224" />
  </g>
  <g
     id="g226"
     transform="matrix(0.4017283,0,0,0.4017283,-21.439509,31.548422)">
    <line
       style="fill:none;stroke:#000000;stroke-width:2.4892447"
       x1="460"
       y1="200"
       x2="677.33099"
       y2="454.37701"
       id="line228" />
    <polygon
       style="fill:#000000"
       points="682.203,460.079 671.905,455.724 677.331,454.377 679.508,449.228 "
       id="polygon230" />
    <polygon
       style="fill:none;stroke:#000000;stroke-width:2.4892447"
       points="677.331,454.377 679.508,449.228 682.203,460.079 671.905,455.724 "
       id="polygon232" />
  </g>
  <g
     id="g234"
     transform="matrix(0.4017283,0,0,0.4017283,-21.439509,31.548422)">
    <line
       style="fill:none;stroke:#000000;stroke-width:2.4892447"
       x1="255"
       y1="230"
       x2="413.42899"
       y2="364.42401"
       id="line236" />
    <polygon
       style="fill:#000000"
       points="419.147,369.277 408.288,366.619 413.429,364.424 414.757,358.994 "
       id="polygon238" />
    <polygon
       style="fill:none;stroke:#000000;stroke-width:2.4892447"
       points="413.429,364.424 414.757,358.994 419.147,369.277 408.288,366.619 "
       id="polygon240" />
  </g>
  <g
     id="g242"
     transform="matrix(0.4017283,0,0,0.4017283,-21.439509,31.548422)">
    <line
       style="fill:none;stroke:#000000;stroke-width:2.4892447"
       x1="255"
       y1="260"
       x2="348.771"
       y2="492.01001"
       id="line244" />
    <polygon
       style="fill:#000000"
       points="351.581,498.963 343.198,491.566 348.771,492.01 352.47,487.818 "
       id="polygon246" />
    <polygon
       style="fill:none;stroke:#000000;stroke-width:2.4892447"
       points="348.771,492.01 352.47,487.818 351.581,498.963 343.198,491.566 "
       id="polygon248" />
  </g>
  <g
     id="g250"
     transform="matrix(0.4017283,0,0,0.4017283,-21.439509,31.548422)">
    <line
       style="fill:none;stroke:#000000;stroke-width:2.4892447"
       x1="436.836"
       y1="200.491"
       x2="212.284"
       y2="496.06699"
       id="line252" />
    <polygon
       style="fill:#000000"
       points="207.747,502.039 209.815,491.051 212.284,496.067 217.778,497.101 "
       id="polygon254" />
    <polygon
       style="fill:none;stroke:#000000;stroke-width:2.4892447"
       points="212.284,496.067 217.778,497.101 207.747,502.039 209.815,491.051 "
       id="polygon256" />
  </g>
  <g
     id="g258"
     transform="matrix(0.4017283,0,0,0.4017283,-21.439509,31.548422)">
    <line
       style="fill:none;stroke:#000000;stroke-width:2.4892447"
       x1="450.017"
       y1="200.504"
       x2="354.681"
       y2="491.80899"
       id="line260" />
    <polygon
       style="fill:#000000"
       points="352.348,498.937 350.706,487.878 354.681,491.809 360.21,490.989 "
       id="polygon262" />
    <polygon
       style="fill:none;stroke:#000000;stroke-width:2.4892447"
       points="354.681,491.809 360.21,490.989 352.348,498.937 350.706,487.878 "
       id="polygon264" />
  </g>
</svg>
