/* XPM */
static char * spykeviewer_xpm[] = {
"32 32 342 2",
"  	c None",
". 	c #BABBBD",
"+ 	c #D4D5D6",
"@ 	c #D1D1D3",
"# 	c #CDCCCD",
"$ 	c #CCCBCC",
"% 	c #CFCED0",
"& 	c #CCCCCE",
"* 	c #AEAEB1",
"= 	c #56585C",
"- 	c #CCCDCE",
"; 	c #CBCACB",
"> 	c #8F8E8E",
", 	c #514E4F",
"' 	c #333131",
") 	c #2B2929",
"! 	c #2A2728",
"~ 	c #272525",
"{ 	c #4A4949",
"] 	c #868585",
"^ 	c #C5C4C5",
"/ 	c #BEBFC0",
"( 	c #5F6065",
"_ 	c #9E9FA2",
": 	c #D5D4D5",
"< 	c #686E6F",
"[ 	c #520000",
"} 	c #3E3C3C",
"| 	c #575656",
"1 	c #656464",
"2 	c #CCCCCC",
"3 	c #8F9194",
"4 	c #B4B5B8",
"5 	c #AFADAD",
"6 	c #313131",
"7 	c #EE0000",
"8 	c #FA0000",
"9 	c #FF6B6B",
"0 	c #747373",
"a 	c #B1AFB0",
"b 	c #A6A7A9",
"c 	c #A9AAAC",
"d 	c #2E2D2D",
"e 	c #FE0F0F",
"f 	c #FD4747",
"g 	c #FD5E5E",
"h 	c #A2A0A0",
"i 	c #A3A2A6",
"j 	c #717377",
"k 	c #C8C7C8",
"l 	c #2B2A2A",
"m 	c #FF6E6E",
"n 	c #FE6464",
"o 	c #FD5555",
"p 	c #FD6464",
"q 	c #555455",
"r 	c #707175",
"s 	c #CECFD0",
"t 	c #FD4A4A",
"u 	c #FD7070",
"v 	c #FE5959",
"w 	c #FF7F7F",
"x 	c #605F60",
"y 	c #C2C1C2",
"z 	c #504F53",
"A 	c #8A8B8F",
"B 	c #A8ABAB",
"C 	c #FD6E6E",
"D 	c #FE5050",
"E 	c #8B8D90",
"F 	c #BCBFC0",
"G 	c #A02626",
"H 	c #F60407",
"I 	c #FE4F4E",
"J 	c #FD6262",
"K 	c #FD4444",
"L 	c #1EBB34",
"M 	c #0AAE1B",
"N 	c #8E8C8D",
"O 	c #595858",
"P 	c #C5C4C6",
"Q 	c #161517",
"R 	c #C5CFD1",
"S 	c #CE0000",
"T 	c #F5252A",
"U 	c #FE5C5C",
"V 	c #F02D32",
"W 	c #FC2222",
"X 	c #FD6666",
"Y 	c #FD3636",
"Z 	c #FD5252",
"` 	c #FD1616",
" .	c #FF090E",
"..	c #2F9B1E",
"+.	c #0DB11F",
"@.	c #1BB72D",
"#.	c #FF2C2F",
"$.	c #F94A4A",
"%.	c #FA2222",
"&.	c #FB1C1D",
"*.	c #F91A1B",
"=.	c #F90F11",
"-.	c #BBBABA",
";.	c #4B4E52",
">.	c #5C5E61",
",.	c #BAB8B8",
"'.	c #FD4A49",
").	c #FD5A5A",
"!.	c #FA1717",
"~.	c #FE3333",
"{.	c #FD2323",
"].	c #FD2828",
"^.	c #E15C4B",
"/.	c #06BD25",
"(.	c #806B1F",
"_.	c #429322",
":.	c #FF1419",
"<.	c #FC1515",
"[.	c #FC1C1C",
"}.	c #FB1F1E",
"|.	c #FA1414",
"1.	c #F71B1F",
"2.	c #F4181E",
"3.	c #9BA1A4",
"4.	c #78797D",
"5.	c #77787A",
"6.	c #ADACAF",
"7.	c #FD5253",
"8.	c #43C04F",
"9.	c #21B530",
"0.	c #E33F30",
"a.	c #18B52A",
"b.	c #EE6C6C",
"c.	c #F41F27",
"d.	c #BF6266",
"e.	c #8E9194",
"f.	c #7C7E80",
"g.	c #AFAFB3",
"h.	c #FD7272",
"i.	c #FE4B4B",
"j.	c #FE6767",
"k.	c #3DBE4A",
"l.	c #34BC41",
"m.	c #21B42F",
"n.	c #4BC359",
"o.	c #DC677A",
"p.	c #F01F29",
"q.	c #BAA1AA",
"r.	c #949597",
"s.	c #717375",
"t.	c #BEBEC3",
"u.	c #FD4646",
"v.	c #FD4848",
"w.	c #33BC41",
"x.	c #56C763",
"y.	c #35BC44",
"z.	c #D2D5DB",
"A.	c #8C8C90",
"B.	c #545457",
"C.	c #D1D0D3",
"D.	c #5AC769",
"E.	c #FE4648",
"F.	c #FD6E6D",
"G.	c #5CC968",
"H.	c #5ECA6A",
"I.	c #2EBA3C",
"J.	c #4FC45D",
"K.	c #4AC258",
"L.	c #30BB3F",
"M.	c #5DC86B",
"N.	c #EFF0F1",
"O.	c #747578",
"P.	c #262628",
"Q.	c #DBD8DA",
"R.	c #52BB76",
"S.	c #36BA49",
"T.	c #60C96A",
"U.	c #5AD470",
"V.	c #5EC86A",
"W.	c #41C04C",
"X.	c #41C050",
"Y.	c #52C560",
"Z.	c #33BC43",
"`.	c #41BF53",
" +	c #5BCB6F",
".+	c #42C15B",
"++	c #FBFAF9",
"@+	c #4E5054",
"#+	c #222222",
"$+	c #BEBCBF",
"%+	c #96CCAB",
"&+	c #3BB65B",
"*+	c #51C55D",
"=+	c #68CD73",
"-+	c #53C560",
";+	c #42BF4F",
">+	c #5FCA6C",
",+	c #3DBE4C",
"'+	c #5BC969",
")+	c #3EC04D",
"!+	c #52C661",
"~+	c #43C256",
"{+	c #42C358",
"]+	c #3FBF5A",
"^+	c #39B85A",
"/+	c #20AC44",
"(+	c #93D6A9",
"_+	c #D8D7D9",
":+	c #2B2D33",
"<+	c #6A6B6F",
"[+	c #EEEEF0",
"}+	c #60CC71",
"|+	c #5AC969",
"1+	c #59C968",
"2+	c #43C052",
"3+	c #4BC35A",
"4+	c #32B352",
"5+	c #4ABA6C",
"6+	c #EAFAED",
"7+	c #88888C",
"8+	c #181819",
"9+	c #D4D4D4",
"0+	c #EAF2F9",
"a+	c #69CF7A",
"b+	c #43C053",
"c+	c #59C868",
"d+	c #E5EFFF",
"e+	c #F2F1F2",
"f+	c #3A3B41",
"g+	c #56565B",
"h+	c #F8F7F5",
"i+	c #DAE9FF",
"j+	c #5CCA70",
"k+	c #40C052",
"l+	c #61CC75",
"m+	c #CBDEFE",
"n+	c #FFFFFF",
"o+	c #717275",
"p+	c #8E8F92",
"q+	c #FDFDFA",
"r+	c #D2E3FF",
"s+	c #5DCA74",
"t+	c #C4D8FE",
"u+	c #A4A5A7",
"v+	c #35363B",
"w+	c #282728",
"x+	c #9C9DA0",
"y+	c #DFEBFF",
"z+	c #D4E4FE",
"A+	c #B3B4B6",
"B+	c #7E7F83",
"C+	c #878583",
"D+	c #262526",
"E+	c #7E8083",
"F+	c #FFFEFD",
"G+	c #F5FAFF",
"H+	c #CCDEFE",
"I+	c #F0F7FE",
"J+	c #939497",
"K+	c #6C6B6B",
"L+	c #807F7E",
"M+	c #BFBDBB",
"N+	c #868482",
"O+	c #202020",
"P+	c #3E4044",
"Q+	c #BBBCBE",
"R+	c #FCFFFF",
"S+	c #E7F1FE",
"T+	c #D8E6FF",
"U+	c #CEDFFE",
"V+	c #D6E5FF",
"W+	c #E5EFFE",
"X+	c #F9FEFF",
"Y+	c #C9CACC",
"Z+	c #4F5156",
"`+	c #15171A",
" @	c #CECECE",
".@	c #8B8B8B",
"+@	c #818180",
"@@	c #BFBEBB",
"#@	c #888784",
"$@	c #151518",
"%@	c #3D3F43",
"&@	c #C9C9CA",
"*@	c #E8E8E8",
"=@	c #F8F8F7",
"-@	c #F9F8F8",
";@	c #EBEBEB",
">@	c #CDCDCF",
",@	c #95969A",
"'@	c #494A4F",
")@	c #1F2024",
"!@	c #DBDBDB",
"~@	c #898A8A",
"{@	c #828281",
"]@	c #868583",
"^@	c #828282",
"/@	c #606060",
"(@	c #111217",
"_@	c #202226",
":@	c #26272C",
"<@	c #292B30",
"[@	c #232528",
"}@	c #1A1C20",
"|@	c #1A191B",
"1@	c #DCDCDC",
"2@	c #6D6C6C",
"3@	c #1B1B1B",
"4@	c #7B7B7B",
"5@	c #BFBFBF",
"6@	c #535353",
"7@	c #838383",
"8@	c #505050",
"9@	c #1A1919",
"0@	c #7E7E7E",
"a@	c #B3B3B3",
"b@	c #4A4A4A",
"c@	c #7F7F7F",
"d@	c #7A7A7A",
"e@	c #4B4B4B",
"f@	c #191818",
"g@	c #757575",
"h@	c #A6A6A6",
"i@	c #414141",
"j@	c #777777",
"k@	c #707070",
"l@	c #454545",
"m@	c #141313",
"n@	c #656565",
"o@	c #959595",
"p@	c #3C3C3C",
"q@	c #6F6F6F",
"r@	c #686868",
"s@	c #3E3E3E",
"t@	c #010101",
"u@	c #5E5E5E",
"v@	c #666666",
"w@	c #5F5F5F",
"x@	c #3A3A3A",
"y@	c #565656",
"z@	c #343434",
"A@	c #070707",
"                  . + @ # $ % & * =                             ",
"              - ; > , ' ) ! ~ { ] ^ / (                         ",
"          _ : < [     } }         | 1 2 3                       ",
"        4 5 6 7 8 9                   0 a b                     ",
"      c a d } e f g                       h i                   ",
"    j k l   m n o p                       q 5 r                 ",
"    s }     t u v w                         x y z               ",
"  A B       o C v D                           > E               ",
"} F G H     I   J K       L M               N O P               ",
"Q R S T U V W   X Y Z `  ...+.@.#.$.%.&.*.=.    -.;.            ",
">.,.    '.).!.    ~.{.].^./.(._.:.<.[.}.|.1.2.  3.4.            ",
"5.6.    7.t v           8.9.0.a.        b.  2.c.d.e.            ",
"f.g.    h.i.j.          k.l.  m.n.          o.p.q.r.            ",
"s.t.      u.v.          w.x.  y.y.              z.A.            ",
"B.C.  D.  E.F.    G.H.  I.J.  K.L.M.            N.O.            ",
"P.Q.R.S.T.U.  V.W.X.y.  y.      Y.Z.`. +.+      ++@+            ",
"#+$+%+&+*+=+-+;+>+  ,+'+)+      y.!+~+{+]+^+/+(+_+:+            ",
"  <+[+      }+|+    1+2+3+                4+5+6+7+              ",
"  8+9+0+            a+b+c+                  d+e+f+              ",
"    g+h+i+          j+k+l+                m+n+o+                ",
"    l p+q+r+          s+                t+n+u+v+                ",
"    } w+x+n+y+                        z+n+A+B+C+                ",
"        D+E+F+G+H+                  I+n+J+K+L+M+N+              ",
"        } O+P+Q+n+R+S+T+U+U+V+W+X+n+Y+Z+`+ @.@+@@@#@            ",
"            } $@%@E &@*@=@-@;@>@,@'@)@      !@~@{@]@^@/@        ",
"                  O+(@_@:@<@[@}@|@}           1@2@3@4@5@6@      ",
"                                                7@8@9@0@a@b@    ",
"                                                c@d@e@f@g@h@i@  ",
"                                                  j@k@l@m@n@o@p@",
"                                                    q@r@s@t@u@7@",
"                                                      v@w@x@t@6@",
"                                                        w@y@z@A@"};
